<!--?xml version="1.0" encoding="utf-8"?-->
<!-- Generator: Adobe Illustrator 18.1.1, SVG Export Plug-In . SVG Version: 6.00 Build 0)  -->

<svg version="1.1" id="_x31_0" xmlns="http://www.w3.org/2000/svg" xmlns:xlink="http://www.w3.org/1999/xlink" x="0px" y="0px" viewBox="0 0 512 512" style="width: 128px; height: 128px; opacity: 1;" xml:space="preserve">
<style type="text/css">
	.st0{fill:#374149;}
</style>
<g>
	<path class="st0" d="M30.632,105.026H223.18c8.462,0,15.316-6.854,15.316-15.316V15.316C238.496,6.859,231.641,0,223.18,0H30.632
		c-8.457,0-15.316,6.859-15.316,15.316V89.71C15.316,98.171,22.176,105.026,30.632,105.026z" style="fill: rgb(255, 191, 143);"></path>
	<path class="st0" d="M481.368,0H288.82c-8.457,0-15.316,6.859-15.316,15.316V89.71c0,8.462,6.859,15.316,15.316,15.316h192.547
		c8.462,0,15.316-6.854,15.316-15.316V15.316C496.684,6.859,489.829,0,481.368,0z" style="fill: rgb(255, 191, 143);"></path>
	<path class="st0" d="M30.632,240.684h63.454c8.461,0,15.316-6.855,15.316-15.317v-74.393c0-8.458-6.855-15.316-15.316-15.316
		H30.632c-8.457,0-15.316,6.858-15.316,15.316v74.393C15.316,233.829,22.176,240.684,30.632,240.684z" style="fill: rgb(255, 191, 143);"></path>
	<path class="st0" d="M144.411,150.974v74.393c0,8.462,6.858,15.317,15.316,15.317h192.547c8.462,0,15.316-6.855,15.316-15.317
		v-74.393c0-8.458-6.854-15.316-15.316-15.316H159.727C151.269,135.658,144.411,142.517,144.411,150.974z" style="fill: rgb(255, 191, 143);"></path>
	<path class="st0" d="M481.368,135.658h-63.453c-8.458,0-15.316,6.858-15.316,15.316v74.393c0,8.462,6.858,15.317,15.316,15.317
		h63.453c8.462,0,15.316-6.855,15.316-15.317v-74.393C496.684,142.517,489.829,135.658,481.368,135.658z" style="fill: rgb(255, 191, 143);"></path>
	<path class="st0" d="M30.632,376.342H223.18c8.462,0,15.316-6.854,15.316-15.316v-74.393c0-8.458-6.854-15.317-15.316-15.317
		H30.632c-8.457,0-15.316,6.859-15.316,15.317v74.393C15.316,369.487,22.176,376.342,30.632,376.342z" style="fill: rgb(255, 191, 143);"></path>
	<path class="st0" d="M481.368,271.316H288.82c-8.457,0-15.316,6.859-15.316,15.317v74.393c0,8.462,6.859,15.316,15.316,15.316
		h192.547c8.462,0,15.316-6.854,15.316-15.316v-74.393C496.684,278.175,489.829,271.316,481.368,271.316z" style="fill: rgb(255, 191, 143);"></path>
	<path class="st0" d="M94.086,406.974H30.632c-8.457,0-15.316,6.859-15.316,15.316v74.394c0,8.462,6.859,15.316,15.316,15.316
		h63.454c8.461,0,15.316-6.854,15.316-15.316V422.29C109.402,413.834,102.547,406.974,94.086,406.974z" style="fill: rgb(255, 191, 143);"></path>
	<path class="st0" d="M352.274,406.974H159.727c-8.458,0-15.316,6.859-15.316,15.316v74.394c0,8.462,6.858,15.316,15.316,15.316
		h192.547c8.462,0,15.316-6.854,15.316-15.316V422.29C367.59,413.834,360.736,406.974,352.274,406.974z" style="fill: rgb(255, 191, 143);"></path>
	<path class="st0" d="M481.368,406.974h-63.453c-8.458,0-15.316,6.859-15.316,15.316v74.394c0,8.462,6.858,15.316,15.316,15.316
		h63.453c8.462,0,15.316-6.854,15.316-15.316V422.29C496.684,413.834,489.829,406.974,481.368,406.974z" style="fill: rgb(255, 191, 143);"></path>
</g>
</svg>
